<?xml version="1.0" standalone="no"?>
<!DOCTYPE svg PUBLIC "-//W3C//DTD SVG 20010904//EN"
 "http://www.w3.org/TR/2001/REC-SVG-20010904/DTD/svg10.dtd">
<svg version="1.0" xmlns="http://www.w3.org/2000/svg"
 width="374.000000pt" height="374.000000pt" viewBox="0 0 374.000000 374.000000"
 preserveAspectRatio="xMidYMid meet">
<metadata>
Created by potrace 1.16, written by Peter Selinger 2001-2019
</metadata>
<g transform="translate(0.000000,374.000000) scale(0.100000,-0.100000)"
fill="#000000" stroke="none">
<path d="M2201 2592 c-36 -70 -671 -1624 -667 -1631 7 -11 75 -35 81 -29 8 7
667 1602 672 1624 4 16 -3 24 -36 36 -38 15 -42 15 -50 0z"/>
<path d="M1111 2101 c-189 -136 -344 -251 -345 -254 0 -4 150 -125 334 -271
l335 -264 35 35 c31 30 33 36 19 46 -8 7 -140 111 -293 232 -264 208 -277 220
-258 235 10 9 146 105 300 214 155 109 282 204 282 211 0 11 -52 66 -61 64 -2
-1 -159 -112 -348 -248z"/>
<path d="M2330 2315 c-19 -19 -32 -36 -29 -39 2 -2 138 -99 303 -216 246 -175
296 -214 285 -225 -8 -7 -138 -106 -289 -220 -151 -114 -282 -214 -290 -221
-12 -12 -10 -18 15 -44 16 -16 33 -30 38 -30 4 0 164 118 353 262 278 211 342
264 332 274 -10 9 -470 341 -654 471 l-31 22 -33 -34z"/>
</g>
</svg>
